<svg xmlns="http://www.w3.org/2000/svg" width="28" height="28" viewBox="0 0 28 28" role="img" aria-labelledby="ad7krismtc4hosrths2y82qeqdl2d5cl" class="application-header__search-icon"><title id="ad7krismtc4hosrths2y82qeqdl2d5cl">Search thoughtbot.com</title>
<path fill-rule="evenodd" clip-rule="evenodd" d="M19.6804 18.0337C22.5314 14.3722 22.2739 9.07472 18.9078 5.70867C15.263 2.06378 9.35342 2.06378 5.70852 5.70867C2.06363 9.35357 2.06363 15.2631 5.70852 18.908C9.07457 22.274 14.372 22.5316 18.0336 19.6805C18.0494 19.6984 18.0658 19.7159 18.0829 19.733L23.0326 24.6827C23.4883 25.1383 24.2269 25.1383 24.6826 24.6827C25.1382 24.2271 25.1382 23.4884 24.6826 23.0328L19.7328 18.083C19.7157 18.066 19.6982 18.0495 19.6804 18.0337ZM17.2579 7.35859C19.9916 10.0923 19.9916 14.5244 17.2579 17.2581C14.5243 19.9918 10.0921 19.9918 7.35844 17.2581C4.62477 14.5244 4.62477 10.0923 7.35844 7.35859C10.0921 4.62492 14.5243 4.62492 17.2579 7.35859Z"></path>
</svg>